<svg id="Layer_1" data-name="Layer 1" xmlns="http://www.w3.org/2000/svg" viewBox="0 0 496.35517 67.77482"><defs><style>.cls-1,.cls-2{fill:#c81c22;}.cls-2{fill-rule:evenodd;}</style></defs><title>logo-empiria</title><path class="cls-1" d="M496.35517,10.64307A10.93856,10.93856,0,1,1,485.45283,0,10.69442,10.69442,0,0,1,496.35517,10.64307Zm-19.14355,0a8.24562,8.24562,0,0,0,8.30664,8.50146,8.14954,8.14954,0,0,0,8.11133-8.43652,8.21524,8.21524,0,1,0-16.418-.06494Zm6.55371,5.581h-2.46582V5.58105a21.54747,21.54747,0,0,1,4.08887-.32421,6.62953,6.62953,0,0,1,3.69921.7788,2.95092,2.95092,0,0,1,1.03809,2.33594,2.72728,2.72728,0,0,1-2.207,2.46631v.1294a3.14076,3.14076,0,0,1,1.94727,2.59619,8.15452,8.15452,0,0,0,.77832,2.66064h-2.66016a9.117,9.117,0,0,1-.84375-2.5957c-.19434-1.16846-.84375-1.6875-2.20606-1.6875h-1.16894Zm.06543-6.03516h1.168c1.36328,0,2.46582-.45458,2.46582-1.55761,0-.97364-.71387-1.62256-2.27149-1.62256a5.90112,5.90112,0,0,0-1.3623.12988Z"/><path class="cls-2" d="M.07726,9.47382q-.123,24.72-.028,49.472c.418,5.586,5.649,8.829,10.821,8.829h58.859l22.73-50.118,17.368,50.118h15.097l25.192-50.118v50.118l15.605-.028.113-67.465-24.246-.031-22.761,48.445-15.293-48.445h-18.512l-27.262,56.125h-42.023v-16.648h32.937l7.266-13.074h-40.203v-13.661h43.113l10.18-12.711-58.102-.031c-4.504.34-10.375,4.192-10.851,9.223"/><rect class="cls-1" x="361.13926" y="0.25482" width="15.742" height="67.52"/><path class="cls-2" d="M299.34626,67.77482v-25.45h10.852l7.379,8.911,13.711,16.539h20.148l-21.699-26.176c.136,0,.258-.028.394-.028,9.09-.921,16.043-6.371,18.762-13.773a19.04838,19.04838,0,0,0,.477-11.789,19.96235,19.96235,0,0,0-5.313-9.133c-4.441-4.332-10.207-5.898-16.332-6.262-3.941-.25-7.914-.304-11.855-.332h-.614c-2.047-.027-4.078-.027-6.152-.027h-25.84v67.52Zm0-56.125c5.313,0,10.625.031,15.91.031h4.582c4,0,7.918,1.258,10.071,4.691a10.79982,10.79982,0,0,1,1.086,7.289c-.586,3.41-4.551,5.844-7.743,6.571a69.1547,69.1547,0,0,1-7.996.554c-2.351.055-4.73.055-7.105.055h-8.805Z"/><rect class="cls-1" x="256.47926" y="0.25482" width="15.746" height="67.52"/><path class="cls-2" d="M194.71327,67.77482v-25.45c5.285,0,10.598.032,15.914-.054,4.946-.055,9.922-.254,14.875-.7,9.055-.921,16.024-6.371,18.758-13.773a19.2571,19.2571,0,0,0,1.172-5.98v-1.168a20.40541,20.40541,0,0,0-.726-4.641,19.80855,19.80855,0,0,0-5.305-9.133c-4.445-4.332-10.184-5.898-16.305-6.262-3.941-.25-7.941-.304-11.883-.332h-.586c-2.074-.027-4.109-.027-6.156-.027h-25.836v67.52Zm0-56.125c5.285,0,10.598.031,15.914.031h4.555c4,0,7.914,1.258,10.094,4.691a10.99344,10.99344,0,0,1,1.066,7.289c-.586,3.41-4.558,5.844-7.746,6.571a69.10729,69.10729,0,0,1-7.969.554c-2.379.055-4.754.055-7.101.055h-8.813Z"/><path class="cls-2" d="M396.93226,33.07882l-10.098,12.989h15.325l-18.563,21.679h20.887l16.582-21.679h30.246v21.679l17.434.028.043-67.52h-29.774l-26.621,32.824Zm45.379-10.98,9.059-10.981v21.961h-18.094Z"/></svg>